<mxfile host="65bd71144e">
    <diagram id="ljJqbsL-OQybeztCu5TF" name="Page-1">
        <mxGraphModel dx="1086" dy="1231" grid="1" gridSize="10" guides="1" tooltips="1" connect="1" arrows="1" fold="1" page="1" pageScale="1" pageWidth="827" pageHeight="1169" math="0" shadow="0">
            <root>
                <mxCell id="0"/>
                <mxCell id="1" parent="0"/>
                <mxCell id="2" value="pageSize(w, h)" style="rounded=0;whiteSpace=wrap;html=1;align=left;verticalAlign=top;spacingLeft=8;fontFamily=JetBrains Mono;fontSource=https%3A%2F%2Ffonts.googleapis.com%2Fcss%3Ffamily%3DJetBrains%2BMono;" vertex="1" parent="1">
                    <mxGeometry x="110" y="130" width="530" height="630" as="geometry"/>
                </mxCell>
                <mxCell id="3" value="viewport: DOMRect" style="rounded=0;whiteSpace=wrap;html=1;align=left;verticalAlign=top;spacingLeft=8;fontFamily=JetBrains Mono;fontSource=https%3A%2F%2Ffonts.googleapis.com%2Fcss%3Ffamily%3DJetBrains%2BMono;" vertex="1" parent="1">
                    <mxGeometry x="160" y="190" width="430" height="510" as="geometry"/>
                </mxCell>
                <mxCell id="5" value="target: DOMRect" style="rounded=0;whiteSpace=wrap;html=1;align=left;verticalAlign=top;spacingLeft=8;fontFamily=JetBrains Mono;fontSource=https%3A%2F%2Ffonts.googleapis.com%2Fcss%3Ffamily%3DJetBrains%2BMono;fillColor=#1ba1e2;fontColor=#ffffff;strokeColor=#006EAF;" vertex="1" parent="1">
                    <mxGeometry x="300" y="400" width="180" height="40" as="geometry"/>
                </mxCell>
                <mxCell id="6" value="content: DOMRect" style="rounded=0;whiteSpace=wrap;html=1;align=left;verticalAlign=top;fontFamily=JetBrains Mono;fontSource=https%3A%2F%2Ffonts.googleapis.com%2Fcss%3Ffamily%3DJetBrains%2BMono;fillColor=#6a00ff;fontColor=#ffffff;strokeColor=#3700CC;" vertex="1" parent="1">
                    <mxGeometry x="300" y="240" width="230" height="150" as="geometry"/>
                </mxCell>
                <mxCell id="7" value="pageSize(w, h)" style="rounded=0;whiteSpace=wrap;html=1;align=left;verticalAlign=top;spacingLeft=8;fontFamily=JetBrains Mono;fontSource=https%3A%2F%2Ffonts.googleapis.com%2Fcss%3Ffamily%3DJetBrains%2BMono;" vertex="1" parent="1">
                    <mxGeometry x="750" y="130" width="530" height="630" as="geometry"/>
                </mxCell>
                <mxCell id="8" value="viewport: DOMRect" style="rounded=0;whiteSpace=wrap;html=1;align=left;verticalAlign=top;spacingLeft=8;fontFamily=JetBrains Mono;fontSource=https%3A%2F%2Ffonts.googleapis.com%2Fcss%3Ffamily%3DJetBrains%2BMono;" vertex="1" parent="1">
                    <mxGeometry x="800" y="190" width="430" height="510" as="geometry"/>
                </mxCell>
                <mxCell id="9" value="target: DOMRect" style="rounded=0;whiteSpace=wrap;html=1;align=left;verticalAlign=top;spacingLeft=8;fontFamily=JetBrains Mono;fontSource=https%3A%2F%2Ffonts.googleapis.com%2Fcss%3Ffamily%3DJetBrains%2BMono;fillColor=#1ba1e2;fontColor=#ffffff;strokeColor=#006EAF;" vertex="1" parent="1">
                    <mxGeometry x="940" y="400" width="180" height="40" as="geometry"/>
                </mxCell>
                <mxCell id="10" value="available space: top-left" style="rounded=0;whiteSpace=wrap;html=1;align=left;verticalAlign=top;fontFamily=JetBrains Mono;fontSource=https%3A%2F%2Ffonts.googleapis.com%2Fcss%3Ffamily%3DJetBrains%2BMono;fillColor=#6a00ff;fontColor=#ffffff;strokeColor=#3700CC;" vertex="1" parent="1">
                    <mxGeometry x="940" y="190" width="290" height="200" as="geometry"/>
                </mxCell>
                <mxCell id="11" value="pageSize(w, h)" style="rounded=0;whiteSpace=wrap;html=1;align=left;verticalAlign=top;spacingLeft=8;fontFamily=JetBrains Mono;fontSource=https%3A%2F%2Ffonts.googleapis.com%2Fcss%3Ffamily%3DJetBrains%2BMono;" vertex="1" parent="1">
                    <mxGeometry x="1290" y="130" width="530" height="630" as="geometry"/>
                </mxCell>
                <mxCell id="12" value="viewport: DOMRect" style="rounded=0;whiteSpace=wrap;html=1;align=left;verticalAlign=top;spacingLeft=8;fontFamily=JetBrains Mono;fontSource=https%3A%2F%2Ffonts.googleapis.com%2Fcss%3Ffamily%3DJetBrains%2BMono;" vertex="1" parent="1">
                    <mxGeometry x="1340" y="190" width="430" height="510" as="geometry"/>
                </mxCell>
                <mxCell id="13" value="target: DOMRect" style="rounded=0;whiteSpace=wrap;html=1;align=left;verticalAlign=top;spacingLeft=8;fontFamily=JetBrains Mono;fontSource=https%3A%2F%2Ffonts.googleapis.com%2Fcss%3Ffamily%3DJetBrains%2BMono;fillColor=#1ba1e2;fontColor=#ffffff;strokeColor=#006EAF;" vertex="1" parent="1">
                    <mxGeometry x="1480" y="400" width="180" height="40" as="geometry"/>
                </mxCell>
                <mxCell id="14" value="available space: bottom-right" style="rounded=0;whiteSpace=wrap;html=1;align=left;verticalAlign=top;fontFamily=JetBrains Mono;fontSource=https%3A%2F%2Ffonts.googleapis.com%2Fcss%3Ffamily%3DJetBrains%2BMono;fillColor=#6a00ff;fontColor=#ffffff;strokeColor=#3700CC;" vertex="1" parent="1">
                    <mxGeometry x="1340" y="450" width="320" height="250" as="geometry"/>
                </mxCell>
                <mxCell id="15" value="pageSize(w, h)" style="rounded=0;whiteSpace=wrap;html=1;align=left;verticalAlign=top;spacingLeft=8;fontFamily=JetBrains Mono;fontSource=https%3A%2F%2Ffonts.googleapis.com%2Fcss%3Ffamily%3DJetBrains%2BMono;" vertex="1" parent="1">
                    <mxGeometry x="750" y="770" width="530" height="630" as="geometry"/>
                </mxCell>
                <mxCell id="16" value="viewport: DOMRect" style="rounded=0;whiteSpace=wrap;html=1;align=left;verticalAlign=top;spacingLeft=8;fontFamily=JetBrains Mono;fontSource=https%3A%2F%2Ffonts.googleapis.com%2Fcss%3Ffamily%3DJetBrains%2BMono;" vertex="1" parent="1">
                    <mxGeometry x="800" y="830" width="430" height="510" as="geometry"/>
                </mxCell>
                <mxCell id="17" value="target: DOMRect" style="rounded=0;whiteSpace=wrap;html=1;align=left;verticalAlign=top;spacingLeft=8;fontFamily=JetBrains Mono;fontSource=https%3A%2F%2Ffonts.googleapis.com%2Fcss%3Ffamily%3DJetBrains%2BMono;fillColor=#1ba1e2;fontColor=#ffffff;strokeColor=#006EAF;" vertex="1" parent="1">
                    <mxGeometry x="940" y="1040" width="180" height="40" as="geometry"/>
                </mxCell>
                <mxCell id="18" value="available space: left-bottom" style="rounded=0;whiteSpace=wrap;html=1;align=left;verticalAlign=top;fontFamily=JetBrains Mono;fontSource=https%3A%2F%2Ffonts.googleapis.com%2Fcss%3Ffamily%3DJetBrains%2BMono;fillColor=#6a00ff;fontColor=#ffffff;strokeColor=#3700CC;" vertex="1" parent="1">
                    <mxGeometry x="800" y="1040" width="130" height="300" as="geometry"/>
                </mxCell>
                <mxCell id="19" value="pageSize(w, h)" style="rounded=0;whiteSpace=wrap;html=1;align=left;verticalAlign=top;spacingLeft=8;fontFamily=JetBrains Mono;fontSource=https%3A%2F%2Ffonts.googleapis.com%2Fcss%3Ffamily%3DJetBrains%2BMono;" vertex="1" parent="1">
                    <mxGeometry x="1290" y="770" width="530" height="630" as="geometry"/>
                </mxCell>
                <mxCell id="20" value="viewport: DOMRect" style="rounded=0;whiteSpace=wrap;html=1;align=left;verticalAlign=top;spacingLeft=8;fontFamily=JetBrains Mono;fontSource=https%3A%2F%2Ffonts.googleapis.com%2Fcss%3Ffamily%3DJetBrains%2BMono;" vertex="1" parent="1">
                    <mxGeometry x="1340" y="830" width="430" height="510" as="geometry"/>
                </mxCell>
                <mxCell id="21" value="target: DOMRect" style="rounded=0;whiteSpace=wrap;html=1;align=left;verticalAlign=top;spacingLeft=8;fontFamily=JetBrains Mono;fontSource=https%3A%2F%2Ffonts.googleapis.com%2Fcss%3Ffamily%3DJetBrains%2BMono;fillColor=#1ba1e2;fontColor=#ffffff;strokeColor=#006EAF;" vertex="1" parent="1">
                    <mxGeometry x="1480" y="1040" width="180" height="40" as="geometry"/>
                </mxCell>
                <mxCell id="22" value="available space: right-top" style="rounded=0;whiteSpace=wrap;html=1;align=left;verticalAlign=top;fontFamily=JetBrains Mono;fontSource=https%3A%2F%2Ffonts.googleapis.com%2Fcss%3Ffamily%3DJetBrains%2BMono;fillColor=#6a00ff;fontColor=#ffffff;strokeColor=#3700CC;" vertex="1" parent="1">
                    <mxGeometry x="1670" y="830" width="100" height="250" as="geometry"/>
                </mxCell>
                <mxCell id="23" value="pageSize(w, h)" style="rounded=0;whiteSpace=wrap;html=1;align=left;verticalAlign=top;spacingLeft=8;fontFamily=JetBrains Mono;fontSource=https%3A%2F%2Ffonts.googleapis.com%2Fcss%3Ffamily%3DJetBrains%2BMono;" vertex="1" parent="1">
                    <mxGeometry x="1830" y="770" width="530" height="630" as="geometry"/>
                </mxCell>
                <mxCell id="24" value="viewport: DOMRect" style="rounded=0;whiteSpace=wrap;html=1;align=left;verticalAlign=top;spacingLeft=8;fontFamily=JetBrains Mono;fontSource=https%3A%2F%2Ffonts.googleapis.com%2Fcss%3Ffamily%3DJetBrains%2BMono;" vertex="1" parent="1">
                    <mxGeometry x="1880" y="830" width="430" height="510" as="geometry"/>
                </mxCell>
                <mxCell id="25" value="target: DOMRect" style="rounded=0;whiteSpace=wrap;html=1;align=left;verticalAlign=top;spacingLeft=8;fontFamily=JetBrains Mono;fontSource=https%3A%2F%2Ffonts.googleapis.com%2Fcss%3Ffamily%3DJetBrains%2BMono;fillColor=#1ba1e2;fontColor=#ffffff;strokeColor=#006EAF;" vertex="1" parent="1">
                    <mxGeometry x="2020" y="1040" width="180" height="40" as="geometry"/>
                </mxCell>
                <mxCell id="26" value="available space: left-center" style="rounded=0;whiteSpace=wrap;html=1;align=left;verticalAlign=top;fontFamily=JetBrains Mono;fontSource=https%3A%2F%2Ffonts.googleapis.com%2Fcss%3Ffamily%3DJetBrains%2BMono;fillColor=#6a00ff;fontColor=#ffffff;strokeColor=#3700CC;" vertex="1" parent="1">
                    <mxGeometry x="1880" y="830" width="130" height="510" as="geometry"/>
                </mxCell>
                <mxCell id="27" value="pageSize(w, h)" style="rounded=0;whiteSpace=wrap;html=1;align=left;verticalAlign=top;spacingLeft=8;fontFamily=JetBrains Mono;fontSource=https%3A%2F%2Ffonts.googleapis.com%2Fcss%3Ffamily%3DJetBrains%2BMono;" vertex="1" parent="1">
                    <mxGeometry x="1830" y="130" width="530" height="630" as="geometry"/>
                </mxCell>
                <mxCell id="28" value="viewport: DOMRect" style="rounded=0;whiteSpace=wrap;html=1;align=left;verticalAlign=top;spacingLeft=8;fontFamily=JetBrains Mono;fontSource=https%3A%2F%2Ffonts.googleapis.com%2Fcss%3Ffamily%3DJetBrains%2BMono;" vertex="1" parent="1">
                    <mxGeometry x="1880" y="190" width="430" height="510" as="geometry"/>
                </mxCell>
                <mxCell id="29" value="target: DOMRect" style="rounded=0;whiteSpace=wrap;html=1;align=left;verticalAlign=top;spacingLeft=8;fontFamily=JetBrains Mono;fontSource=https%3A%2F%2Ffonts.googleapis.com%2Fcss%3Ffamily%3DJetBrains%2BMono;fillColor=#1ba1e2;fontColor=#ffffff;strokeColor=#006EAF;" vertex="1" parent="1">
                    <mxGeometry x="2020" y="400" width="180" height="40" as="geometry"/>
                </mxCell>
                <mxCell id="30" value="available space: bottom-center" style="rounded=0;whiteSpace=wrap;html=1;align=left;verticalAlign=top;fontFamily=JetBrains Mono;fontSource=https%3A%2F%2Ffonts.googleapis.com%2Fcss%3Ffamily%3DJetBrains%2BMono;fillColor=#6a00ff;fontColor=#ffffff;strokeColor=#3700CC;" vertex="1" parent="1">
                    <mxGeometry x="1880" y="450" width="430" height="250" as="geometry"/>
                </mxCell>
            </root>
        </mxGraphModel>
    </diagram>
</mxfile>